<svg width="44" height="39" viewBox="0 0 44 39" fill="none" xmlns="http://www.w3.org/2000/svg">
<mask id="path-1-outside-1_120_1190" maskUnits="userSpaceOnUse" x="-2" y="-2" width="47" height="42" fill="black">
<rect fill="white" x="-2" y="-2" width="47" height="42"/>
<path d="M23.6891 38.482C22.8618 38.482 22.4481 38.19 22.4481 37.606C22.4481 34.1993 22.2048 30.7927 21.7181 27.386C21.2314 23.9307 20.4771 20.4997 19.4551 17.093C16.7298 7.50567 12.8608 2.712 7.84811 2.712C5.90144 2.712 4.44144 3.61233 3.46811 5.413C2.68944 6.92167 2.30011 8.72233 2.30011 10.815C2.30011 14.1243 3.61411 16.801 6.24211 18.845C8.57811 20.743 11.4494 21.692 14.8561 21.692C15.8294 21.692 16.3161 21.4243 16.3161 20.889C16.3161 20.1103 15.3184 18.8693 13.3231 17.166C11.6198 15.8033 10.2084 14.903 9.08911 14.465C8.50511 14.173 8.21311 13.9053 8.21311 13.662C8.21311 13.37 8.40778 13.224 8.79711 13.224C10.5491 13.224 12.4471 14.2217 14.4911 16.217C16.6324 18.2123 17.7031 20.0373 17.7031 21.692C17.7031 23.152 16.5108 23.882 14.1261 23.882C10.1841 23.882 6.92344 22.6897 4.34411 20.305C1.52144 17.7743 0.110109 14.611 0.110109 10.815C0.110109 8.08966 0.718443 5.72933 1.93511 3.734C3.39511 1.30067 5.36611 0.083999 7.84811 0.083999C15.4888 0.083999 20.4041 5.53467 22.5941 16.436C22.9834 18.4313 23.3728 20.4997 23.7621 22.641C24.1514 24.7823 24.5408 26.9723 24.9301 29.211C25.7574 27.0697 26.7794 24.7093 27.9961 22.13C29.2128 19.5507 30.6728 16.7767 32.3761 13.808C36.7074 5.97266 40.0898 2.055 42.5231 2.055C43.1558 2.055 43.4721 2.39566 43.4721 3.077C43.4721 3.369 43.0341 3.78267 42.1581 4.318L40.4791 5.34C37.7051 7.676 34.9311 11.6423 32.1571 17.239C31.0378 19.5263 30.0401 21.8137 29.1641 24.101C28.2881 26.3883 27.5094 28.6757 26.8281 30.963C26.6334 31.839 26.4388 32.642 26.2441 33.372C26.0494 34.102 25.9034 34.8077 25.8061 35.489C25.8061 37.4843 25.1004 38.482 23.6891 38.482Z"/>
</mask>
<path d="M23.6891 38.482C22.8618 38.482 22.4481 38.19 22.4481 37.606C22.4481 34.1993 22.2048 30.7927 21.7181 27.386C21.2314 23.9307 20.4771 20.4997 19.4551 17.093C16.7298 7.50567 12.8608 2.712 7.84811 2.712C5.90144 2.712 4.44144 3.61233 3.46811 5.413C2.68944 6.92167 2.30011 8.72233 2.30011 10.815C2.30011 14.1243 3.61411 16.801 6.24211 18.845C8.57811 20.743 11.4494 21.692 14.8561 21.692C15.8294 21.692 16.3161 21.4243 16.3161 20.889C16.3161 20.1103 15.3184 18.8693 13.3231 17.166C11.6198 15.8033 10.2084 14.903 9.08911 14.465C8.50511 14.173 8.21311 13.9053 8.21311 13.662C8.21311 13.37 8.40778 13.224 8.79711 13.224C10.5491 13.224 12.4471 14.2217 14.4911 16.217C16.6324 18.2123 17.7031 20.0373 17.7031 21.692C17.7031 23.152 16.5108 23.882 14.1261 23.882C10.1841 23.882 6.92344 22.6897 4.34411 20.305C1.52144 17.7743 0.110109 14.611 0.110109 10.815C0.110109 8.08966 0.718443 5.72933 1.93511 3.734C3.39511 1.30067 5.36611 0.083999 7.84811 0.083999C15.4888 0.083999 20.4041 5.53467 22.5941 16.436C22.9834 18.4313 23.3728 20.4997 23.7621 22.641C24.1514 24.7823 24.5408 26.9723 24.9301 29.211C25.7574 27.0697 26.7794 24.7093 27.9961 22.13C29.2128 19.5507 30.6728 16.7767 32.3761 13.808C36.7074 5.97266 40.0898 2.055 42.5231 2.055C43.1558 2.055 43.4721 2.39566 43.4721 3.077C43.4721 3.369 43.0341 3.78267 42.1581 4.318L40.4791 5.34C37.7051 7.676 34.9311 11.6423 32.1571 17.239C31.0378 19.5263 30.0401 21.8137 29.1641 24.101C28.2881 26.3883 27.5094 28.6757 26.8281 30.963C26.6334 31.839 26.4388 32.642 26.2441 33.372C26.0494 34.102 25.9034 34.8077 25.8061 35.489C25.8061 37.4843 25.1004 38.482 23.6891 38.482Z" fill="black" fill-opacity="0.9"/>
<path d="M21.7181 27.386L20.2328 27.5952L20.2332 27.5981L21.7181 27.386ZM19.4551 17.093L18.0123 17.5031L18.0152 17.5136L18.0184 17.524L19.4551 17.093ZM3.46811 5.413L2.14855 4.69972L2.14174 4.71231L2.13518 4.72503L3.46811 5.413ZM6.24211 18.845L7.188 17.6808L7.17561 17.6708L7.16302 17.661L6.24211 18.845ZM13.3231 17.166L14.297 16.0252L14.2788 16.0096L14.2602 15.9947L13.3231 17.166ZM9.08911 14.465L8.41829 15.8066L8.47915 15.8371L8.54251 15.8619L9.08911 14.465ZM14.4911 16.217L13.4433 17.2904L13.4558 17.3025L13.4685 17.3144L14.4911 16.217ZM4.34411 20.305L5.36239 19.2036L5.35397 19.1958L5.34543 19.1881L4.34411 20.305ZM1.93511 3.734L3.21584 4.51493L3.22135 4.50574L1.93511 3.734ZM22.5941 16.436L24.0664 16.1487L24.0647 16.1406L22.5941 16.436ZM23.7621 22.641L25.2379 22.3727L25.2379 22.3727L23.7621 22.641ZM24.9301 29.211L23.4523 29.468L24.3793 34.7986L26.3293 29.7516L24.9301 29.211ZM32.3761 13.808L33.6772 14.5545L33.6831 14.5441L33.6889 14.5337L32.3761 13.808ZM42.1581 4.318L42.938 5.5993L42.9403 5.59792L42.1581 4.318ZM40.4791 5.34L39.6992 4.0587L39.6009 4.11852L39.5129 4.19263L40.4791 5.34ZM32.1571 17.239L30.8131 16.5729L30.8098 16.5797L32.1571 17.239ZM29.1641 24.101L30.5649 24.6375L30.5649 24.6375L29.1641 24.101ZM26.8281 30.963L25.3905 30.5348L25.3754 30.5857L25.3638 30.6376L26.8281 30.963ZM26.2441 33.372L27.6935 33.7585L27.6935 33.7585L26.2441 33.372ZM25.8061 35.489L24.3212 35.2769L24.3061 35.3824V35.489H25.8061ZM23.6891 36.982C23.5657 36.982 23.5047 36.9706 23.4897 36.9671C23.4752 36.9637 23.5347 36.975 23.6234 37.0375C23.7215 37.1068 23.8181 37.2133 23.882 37.3487C23.9424 37.4765 23.9481 37.5754 23.9481 37.606H20.9481C20.9481 38.2994 21.2229 39.0152 21.8933 39.4885C22.4681 39.8942 23.1447 39.982 23.6891 39.982V36.982ZM23.9481 37.606C23.9481 34.1276 23.6996 30.6501 23.203 27.1739L20.2332 27.5981C20.7099 30.9352 20.9481 34.271 20.9481 37.606H23.9481ZM23.2035 27.1768C22.706 23.645 21.9352 20.1399 20.8918 16.662L18.0184 17.524C19.019 20.8595 19.7569 24.2164 20.2328 27.5952L23.2035 27.1768ZM20.8979 16.6829C19.5101 11.8006 17.7921 7.98629 15.6766 5.36516C13.5291 2.70442 10.911 1.212 7.84811 1.212V4.212C9.79792 4.212 11.6206 5.11641 13.3421 7.24934C15.0956 9.42187 16.6748 12.798 18.0123 17.5031L20.8979 16.6829ZM7.84811 1.212C6.63513 1.212 5.50315 1.49544 4.50578 2.11049C3.51237 2.72309 2.73597 3.61299 2.14855 4.69972L4.78767 6.12627C5.17358 5.41234 5.61385 4.95173 6.08044 4.664C6.54307 4.37872 7.11443 4.212 7.84811 4.212V1.212ZM2.13518 4.72503C1.2241 6.49026 0.800109 8.53773 0.800109 10.815H3.80011C3.80011 8.90693 4.15479 7.35308 4.80104 6.10096L2.13518 4.72503ZM0.800109 10.815C0.800109 14.5905 2.33041 17.7029 5.3212 20.029L7.16302 17.661C4.89781 15.8991 3.80011 13.6582 3.80011 10.815H0.800109ZM5.29622 20.0092C7.93463 22.1529 11.153 23.192 14.8561 23.192V20.192C11.7459 20.192 9.22158 19.3331 7.188 17.6808L5.29622 20.0092ZM14.8561 23.192C15.4311 23.192 16.0998 23.1214 16.674 22.8056C16.9837 22.6352 17.2874 22.3812 17.5077 22.0178C17.7296 21.6515 17.8161 21.2577 17.8161 20.889H14.8161C14.8161 20.788 14.8418 20.6284 14.9421 20.4629C15.0406 20.3002 15.1618 20.2134 15.2282 20.1769C15.2862 20.1451 15.2982 20.1529 15.2244 20.1664C15.1537 20.1794 15.035 20.192 14.8561 20.192V23.192ZM17.8161 20.889C17.8161 19.947 17.2633 19.0892 16.7369 18.4344C16.1541 17.7094 15.3265 16.904 14.297 16.0252L12.3492 18.3068C13.315 19.1313 13.9839 19.7981 14.3988 20.3141C14.8701 20.9003 14.8161 21.0524 14.8161 20.889H17.8161ZM14.2602 15.9947C12.5183 14.6012 10.9667 13.5889 9.63571 13.0681L8.54251 15.8619C9.45023 16.2171 10.7213 17.0055 12.3861 18.3373L14.2602 15.9947ZM9.75993 13.1234C9.64956 13.0682 9.56926 13.0222 9.51344 12.9865C9.45587 12.9497 9.43854 12.933 9.4457 12.9395C9.45019 12.9436 9.50833 12.9965 9.57022 13.1049C9.63619 13.2203 9.71311 13.4122 9.71311 13.662H6.71311C6.71311 14.4053 7.151 14.9057 7.41852 15.151C7.71203 15.42 8.0711 15.633 8.41829 15.8066L9.75993 13.1234ZM9.71311 13.662C9.71311 13.7541 9.69772 13.9054 9.62033 14.0796C9.53906 14.2624 9.41189 14.4189 9.25911 14.5335C8.98235 14.7411 8.74668 14.724 8.79711 14.724V11.724C8.45821 11.724 7.93054 11.7799 7.45911 12.1335C6.90653 12.5479 6.71311 13.15 6.71311 13.662H9.71311ZM8.79711 14.724C9.97289 14.724 11.5115 15.4045 13.4433 17.2904L15.5389 15.1436C13.3827 13.0388 11.1253 11.724 8.79711 11.724V14.724ZM13.4685 17.3144C15.5232 19.229 16.2031 20.6789 16.2031 21.692H19.2031C19.2031 19.3957 17.7417 17.1957 15.5137 15.1196L13.4685 17.3144ZM16.2031 21.692C16.2031 21.8494 16.1724 21.9141 16.1621 21.9329C16.1535 21.9487 16.1273 21.993 16.0256 22.0552C15.7782 22.2067 15.2142 22.382 14.1261 22.382V25.382C15.4227 25.382 16.6472 25.1923 17.5921 24.6138C18.657 23.9618 19.2031 22.916 19.2031 21.692H16.2031ZM14.1261 22.382C10.5118 22.382 7.63003 21.3001 5.36239 19.2036L3.32583 21.4064C6.21685 24.0792 9.85641 25.382 14.1261 25.382V22.382ZM5.34543 19.1881C2.8406 16.9424 1.61011 14.1854 1.61011 10.815H-1.38989C-1.38989 15.0366 0.20229 18.6062 3.34279 21.4219L5.34543 19.1881ZM1.61011 10.815C1.61011 8.31871 2.16497 6.23828 3.2158 4.51491L0.654415 2.95309C-0.72808 5.22038 -1.38989 7.86062 -1.38989 10.815H1.61011ZM3.22135 4.50574C4.4565 2.44716 5.97705 1.584 7.84811 1.584V-1.416C4.75517 -1.416 2.33372 0.154168 0.64887 2.96225L3.22135 4.50574ZM7.84811 1.584C11.2635 1.584 13.9909 2.781 16.1512 5.17654C18.3585 7.62428 20.0563 11.4192 21.1235 16.7314L24.0647 16.1406C22.9419 10.5515 21.0871 6.17039 18.3791 3.16745C15.624 0.11233 12.0734 -1.416 7.84811 -1.416V1.584ZM21.1219 16.7233C21.5099 18.7119 21.898 20.7739 22.2863 22.9093L25.2379 22.3727C24.8475 20.2255 24.457 18.1508 24.0663 16.1487L21.1219 16.7233ZM22.2863 22.9093C22.6749 25.0467 23.0636 27.233 23.4523 29.468L26.4079 28.954C26.018 26.7117 25.628 24.5179 25.2379 22.3727L22.2863 22.9093ZM26.3293 29.7516C27.141 27.6508 28.148 25.3241 29.3528 22.7699L26.6395 21.4901C25.4109 24.0946 24.3739 26.4886 23.5309 28.6704L26.3293 29.7516ZM29.3528 22.7699C30.5494 20.2332 31.99 17.495 33.6772 14.5545L31.0751 13.0615C29.3556 16.0583 27.8762 18.8682 26.6395 21.4901L29.3528 22.7699ZM33.6889 14.5337C35.835 10.6513 37.705 7.8172 39.2968 5.97349C40.0925 5.05179 40.7805 4.42278 41.3582 4.03362C41.9417 3.64058 42.3182 3.555 42.5231 3.555V0.554998C41.5114 0.554998 40.5526 0.959124 39.6821 1.5455C38.8059 2.13576 37.9214 2.97587 37.026 4.013C35.2354 6.08697 33.2485 9.12932 31.0633 13.0823L33.6889 14.5337ZM42.5231 3.555C42.5785 3.555 42.3525 3.56472 42.1357 3.33117C41.9383 3.1186 41.9721 2.94107 41.9721 3.077H44.9721C44.9721 2.53159 44.8478 1.84306 44.3341 1.28982C43.8009 0.715611 43.1003 0.554998 42.5231 0.554998V3.555ZM41.9721 3.077C41.9721 2.77622 42.082 2.58173 42.1155 2.52777C42.1521 2.46884 42.1673 2.46504 42.1137 2.51573C42.0051 2.61832 41.7777 2.79253 41.3759 3.03808L42.9403 5.59792C43.4145 5.30814 43.8442 5.00784 44.1735 4.69677C44.3389 4.54063 44.5184 4.3452 44.6644 4.10985C44.8074 3.87947 44.9721 3.52378 44.9721 3.077H41.9721ZM41.3782 3.0367L39.6992 4.0587L41.259 6.6213L42.938 5.5993L41.3782 3.0367ZM39.5129 4.19263C36.5065 6.72438 33.622 10.906 30.8131 16.5729L33.5011 17.9051C36.2403 12.3787 38.9038 8.62761 41.4453 6.48737L39.5129 4.19263ZM30.8098 16.5797C29.6716 18.9056 28.6559 21.2339 27.7633 23.5645L30.5649 24.6375C31.4243 22.3935 32.404 20.1471 33.5044 17.8983L30.8098 16.5797ZM27.7633 23.5645C26.874 25.8865 26.083 28.21 25.3905 30.5348L28.2657 31.3912C28.9359 29.1414 29.7022 26.8901 30.5649 24.6375L27.7633 23.5645ZM25.3638 30.6376C25.1729 31.4968 24.9831 32.2791 24.7948 32.9855L27.6935 33.7585C27.8944 33.0049 28.094 32.1812 28.2924 31.2884L25.3638 30.6376ZM24.7948 32.9855C24.5863 33.7674 24.4277 34.5314 24.3212 35.2769L27.291 35.7011C27.3792 35.0839 27.5126 34.4366 27.6935 33.7585L24.7948 32.9855ZM24.3061 35.489C24.3061 36.3555 24.1446 36.7369 24.0522 36.8676C24.0184 36.9154 23.9958 36.9287 23.9759 36.9381C23.9482 36.9511 23.8657 36.982 23.6891 36.982V39.982C24.7949 39.982 25.8209 39.5622 26.5015 38.5999C27.1147 37.7329 27.3061 36.6178 27.3061 35.489H24.3061Z" fill="#6B50A0" fill-opacity="0.2" mask="url(#path-1-outside-1_120_1190)"/>
</svg>
